<?xml version="1.0" encoding="UTF-8"?>
<svg width="163px" height="136px" viewBox="0 0 163 136" version="1.1" xmlns="http://www.w3.org/2000/svg" xmlns:xlink="http://www.w3.org/1999/xlink">
    <!-- Generator: Sketch 49.2 (51160) - http://www.bohemiancoding.com/sketch -->
    <title>Work Spaces Graphic - English</title>
    <desc>Created with Sketch.</desc>
    <defs>
        <polygon id="path-1" points="162.677135 0.965775 162.677135 87.7692308 0.000940384615 87.7692308 0.000940384615 0.965775 162.677135 0.965775"></polygon>
    </defs>
    <g id="Working" stroke="none" stroke-width="1" fill="none" fill-rule="evenodd">
        <g id="Hyatt-Place-Brand-Site---Desktop-2" transform="translate(-179.000000, -3486.000000)">
            <g id="Content-Block-#2.v2---Work-Spaces-Copy" transform="translate(55.000000, 3365.000000)">
                <g id="Copy-Block" transform="translate(0.000000, 54.000000)">
                    <g id="Group" transform="translate(0.000000, 67.000000)">
                        <g id="Work-Spaces-Graphic---English" transform="translate(124.000000, 0.000000)">
                            <path d="M90.7815962,4.43548077 C91.5715192,4.53892308 91.8943846,4.47936538 92.2047115,4.238 C92.6811731,3.80855769 93.2986923,2.55784615 93.3864615,1.83688462 C93.4679615,1.21936538 92.9319423,0.799326923 91.8661731,0.661403846 C90.2800577,0.454519231 89.6688077,3.06878846 89.6217885,3.41359615 C89.5402885,4.03111538 89.8506154,4.31636538 90.7815962,4.43548077" id="Fill-1" fill="#F48025"></path>
                            <path d="M110.198344,26.5981519 C109.367671,26.0307865 109.514998,24.5794596 110.55569,23.0623058 C113.019498,19.4512288 116.345325,19.6173635 117.461248,20.3822096 C118.288787,20.949575 118.357748,21.9620558 118.476863,23.761325 L116.42369,25.7235942 C116.367267,25.8082288 116.113363,25.9273442 115.756017,26.0213827 L114.909671,26.2815558 C113.583729,26.6827865 111.148133,27.2407481 110.198344,26.5981519 M105.822421,34.4911135 C105.33969,34.1557096 105.132806,33.5914788 105.367902,33.2529404 C105.700171,32.767075 107.113883,32.4724212 109.571421,32.3846519 C107.276883,34.6353058 106.599806,35.0177288 105.822421,34.4911135 M68.4860173,9.95020962 C68.9687481,9.85617115 69.2916135,10.0787288 69.3856519,10.5551904 C69.645825,11.9156135 68.1913635,13.6835365 65.5959019,15.2163635 C65.6617288,12.6585173 66.9939404,10.2417288 68.4860173,9.95020962 M54.8410365,14.0283442 C55.2861519,13.8371327 55.6560365,13.981325 55.8441135,14.429575 C56.3958058,15.6990942 55.3488442,17.7397288 53.1358058,19.7866327 C52.653075,17.2726712 53.4429981,14.633325 54.8410365,14.0283442 M134.93046,29.099575 L134.14994,28.1247096 C133.704825,27.5855558 133.378825,27.3191135 133.106113,27.3316519 C132.400825,27.2720942 130.918152,27.8551327 130.328844,28.3911519 C130.175248,28.5322096 130.11569,28.6764019 130.103152,28.9209019 C127.322748,29.5164788 126.789863,29.5760365 122.849652,30.0462288 C118.10071,30.6041904 115.558537,30.3753635 115.558537,30.3753635 L123.924825,22.2284981 L121.633421,20.6674596 L120.053575,22.1908827 C119.802806,19.9653058 119.48621,19.2004596 118.511344,18.5390558 C115.787363,16.6802288 111.33621,17.8055558 108.618498,20.8179212 L108.756421,20.4010173 C105.637479,22.2253635 102.759902,22.7080942 102.399421,22.5858442 C102.070287,22.4729981 101.985652,22.0811712 102.186267,21.4855942 C102.390017,20.8962865 102.957383,19.9903827 103.944787,18.7145942 C105.123402,17.2131135 105.856902,16.0344981 106.129613,15.2477096 C106.69071,13.6051712 106.280075,12.0347288 105.164152,11.6460365 C103.719094,11.1539019 101.872806,11.6209596 97.4435942,13.6208442 C98.3463635,12.2823635 99.0109019,11.4078058 100.208325,9.95020962 L97.4843442,9.01609423 C95.3528058,11.6429019 93.9484981,13.8089212 93.1554404,15.5674404 L93.1742481,15.4138442 C91.5912673,16.5705173 88.6541327,18.7459404 87.5570173,18.6048827 C87.1056327,18.5484596 86.9927865,18.0751327 87.1463827,16.9059212 C87.3908827,14.9812673 88.1431904,12.9437673 90.0991904,8.89697885 L90.5787865,7.90644038 L87.7576327,7.542825 C86.3815365,10.0223058 85.3565173,12.473575 84.8110942,14.592575 L84.804825,14.266575 C82.0369596,17.1786327 80.3160558,18.2757481 79.6891327,18.2820173 C79.0622096,18.2914212 78.6359019,17.1504212 78.610825,15.3824981 C78.5951519,13.8904212 78.855325,12.3952096 79.5167288,9.92513269 L79.6828635,9.37030577 C81.1059788,9.28253654 81.9397865,9.23551731 83.1184019,9.29194038 L83.5070942,7.24190192 C82.4664019,7.21369038 82.0526327,7.21995962 80.3505365,7.31086346 L82.6576135,0.000940384615 L79.8145173,0.0354211538 L77.4102673,7.62745962 C76.1940365,7.85315192 75.9181904,7.88763269 75.8899788,8.235575 L75.7677288,9.58972885 L76.8397673,9.40478654 L76.573325,10.4109981 C76.0780558,12.1977288 75.8241519,13.3481327 75.7113058,14.3762865 L75.6674212,14.1317865 C72.7898442,17.8776519 70.5862096,19.6142288 68.0001519,20.1220365 C66.2322288,20.4637096 65.8811519,18.5171135 65.7118827,17.4544788 L66.3388058,17.0501135 C68.3731712,15.6959596 72.172325,13.2634981 71.4983827,9.82169038 C71.1880558,8.22303654 70.053325,7.48640192 68.3543635,7.82180577 C65.0379404,8.46753654 62.6807096,12.5331327 62.8311712,16.7899404 L62.7434019,16.5924596 C60.7309788,20.8555365 58.9442481,23.0246904 56.5274596,24.0685173 C54.8692481,24.7832096 54.1169404,22.9525942 53.7251135,21.9526519 L54.2548635,21.4197673 C55.9506904,19.6706519 59.1511327,16.4764788 57.7593635,13.2634981 C57.1167673,11.7682865 55.8535173,11.2886904 54.2579981,11.9751712 C51.1421904,13.3199212 49.7065365,17.8306327 50.7879788,21.9745942 C50.534075,24.7111135 50.0137288,26.7799596 49.4557673,27.2407481 C49.2144019,27.4413635 48.7849596,27.2532865 48.4338827,26.8238442 C48.0357865,26.3442481 47.4997673,25.2565365 46.9762865,23.7581904 C46.3901135,22.1752096 45.9105173,21.2160173 45.4685365,20.6799981 C44.4309788,19.4230173 42.8385942,19.0813442 41.8762673,19.8744019 C41.0455942,20.5577481 40.5252481,21.8899596 39.9766904,24.5951327 C39.8387673,25.3004212 39.7635365,25.5386519 39.6726327,25.9712288 C37.9485942,23.6171327 36.2935173,23.6829596 35.5694212,24.2816712 C34.5569404,25.1186135 34.0397288,26.9429596 33.6259596,31.2875365 C33.0303827,30.0242865 32.6918442,29.1779404 32.1338827,27.5761519 L31.9834212,27.0714788 L29.710825,28.9491135 C30.974075,32.5382481 32.4222673,35.4847865 33.5695365,36.8734212 C33.7670173,37.1147865 35.6571904,39.287075 36.9455173,40.5189788 L38.9736135,38.838825 L38.309075,38.0332288 C37.7323058,37.3906327 37.0395558,36.6132481 36.6007096,36.0772288 C36.0709596,35.4346327 35.7355558,35.0334019 35.2152096,34.2967673 C35.6634596,30.5947865 36.0176712,27.9146904 36.6289212,27.4100173 C36.8953635,27.1874596 37.2809212,27.3191135 37.6539404,27.7767673 C37.942325,28.1247096 38.3059404,28.7265558 38.8513635,29.7139596 C39.8450365,31.4599404 40.6098827,33.0303827 42.098825,36.2527673 L44.2961904,34.437825 C42.5408058,30.7985365 41.8731327,29.5509596 41.3590558,28.7202865 L41.446825,28.0087288 C41.5157865,27.5980942 42.180325,22.9087096 42.7132096,22.4698635 C42.9294981,22.2880558 43.2617673,22.3695558 43.484325,22.6391327 C43.7068827,22.9024404 44.0767673,23.6766904 44.4905365,24.7769404 C45.2303058,26.817575 45.8948442,28.162325 46.5374404,28.936575 C46.9324019,29.4161712 48.6783827,31.0367673 50.2833058,29.7076904 C51.2613058,28.895825 51.9415173,27.4758442 52.3709596,25.3286327 C53.3176135,26.532325 54.6122096,27.3128442 56.2265365,26.613825 C58.9912673,25.4195365 61.3265558,23.2096327 63.4173442,19.8806712 C64.0379981,21.5420173 65.2009404,22.9243827 67.1632096,22.5450942 C70.1661712,21.9589212 72.9622481,20.256825 75.758325,17.3667096 C76.0874596,19.5045173 77.1250173,20.8806135 78.5387288,20.8618058 C79.4603058,20.8524019 81.2689788,20.3696712 84.3471712,17.5892673 C84.2719404,19.0625365 84.4035942,20.2787673 84.7389981,20.6549212 C84.9834981,20.8962865 85.2812865,21.0373442 85.6981904,21.0906327 C87.2592288,21.2943827 89.1494019,20.5702865 92.0238442,18.7584788 L91.8514404,19.3321135 C91.6696327,19.9653058 91.5129019,20.4229596 91.3185558,21.2034788 L93.9108827,22.0937096 L94.1397096,21.3257288 C94.4124212,20.3195173 94.6224404,19.6957288 94.9390365,18.7772865 C95.2995173,17.730325 95.4123635,17.3980558 95.8386712,16.4796135 L96.2837865,16.2664596 C100.662844,14.2853827 102.311652,13.533075 103.070229,13.7963827 C103.361748,13.8935558 103.42444,14.3574788 103.22069,14.9467865 C103.079633,15.3730942 102.537344,16.2131712 101.665921,17.3479019 C100.437152,18.9058058 99.7757481,19.9621712 99.4967673,20.7834404 C98.8698442,22.6140558 99.3463058,24.1029981 100.69419,24.5700558 C102.16746,25.0747288 103.728498,24.8020173 106.966556,23.4917481 L106.96969,23.4917481 C106.374113,25.3035558 106.750267,27.0589404 108.088748,27.9679788 C109.151383,28.6952096 110.483594,28.7641712 113.25146,28.2187481 L113.997498,28.0526135 L111.593248,30.4004404 C111.245306,30.4192481 111.072902,30.4286519 110.455383,30.4662673 C108.214133,30.4913442 104.465133,30.5791135 103.364883,32.1809019 C102.643921,33.2404019 103.317863,34.9613058 104.894575,36.0364788 C106.957152,37.4439212 109.674863,36.1838058 113.865844,32.196575 C116.937767,32.237325 122.86846,32.3909212 128.144017,31.2499212 C128.579729,31.1558827 128.739594,31.1308058 128.984094,31.0994596 C128.739594,32.0680558 128.150287,32.6009404 127.786671,32.930075 C126.548498,34.0397288 122.630229,35.7512288 122.022113,35.0804212 C121.956287,35.0051904 121.72746,34.6979981 121.545652,34.3939404 C121.23219,33.8861327 120.956344,33.4817673 120.721248,33.2215942 C120.583325,33.0679981 120.388979,33.0084404 120.21344,33.0272481 C119.77146,33.0993442 119.034825,33.5319212 118.495671,34.0146519 C117.903229,34.5475365 117.934575,34.9424981 118.627325,35.7167481 C119.627267,36.8264019 120.194633,37.1994212 121.138152,37.4689981 C121.44221,38.3153442 121.620883,38.7228442 122.031517,39.1836327 C122.962498,40.2149212 124.721017,40.8731904 128.197306,41.5659404 L128.85244,41.6725173 L130.993383,39.7447288 C130.281825,39.6350173 129.87119,39.5409788 129.090671,39.4532096 C124.852671,38.8889788 124.137979,38.3592288 123.485979,37.6351327 C126.727171,37.1429981 129.162767,35.2308827 129.548325,34.886075 C130.501248,34.0240558 130.952633,32.9645558 131.281767,30.8486904 C131.529402,30.8142096 131.651652,30.7922673 131.999594,30.7609212 C133.673479,30.6041904 134.469671,30.4004404 134.88344,30.0274212 C135.143613,29.7954596 135.178094,29.5290173 134.93046,29.099575" id="Fill-3" fill="#F48025"></path>
                            <path d="M105.980092,40.9825885 C105.939342,43.1674154 106.124285,45.2676077 106.481631,47.3489923 C98.7171885,39.0986846 87.6425923,34.7478385 76.2357269,35.6318 C67.9885538,36.2681269 60.2648615,39.58455 54.1523615,45.0481846 C55.0582654,42.7160308 55.5002462,40.2208769 54.9704962,37.8166269 C54.7354,36.7916077 52.5004192,37.3746462 52.7323808,38.4153385 C53.5379769,42.0264154 51.8546885,46.0418577 49.8234577,49.0103385 C49.2310154,49.8723577 50.2215538,50.2328385 50.9581885,50.0855115 C51.5318231,49.9726654 52.0960538,49.8974346 52.6602846,49.8096654 C52.6979,49.8096654 52.7323808,49.8002615 52.7668615,49.7939923 C55.8137077,49.3363385 58.7915923,49.2611077 61.9105346,49.6466654 C62.9951115,49.7845885 64.1988038,48.2298192 62.6879192,48.0386077 C60.1049962,47.7157423 57.6035731,47.7188769 55.0958808,47.9414346 C60.8980538,42.3774923 68.3897846,38.9701654 76.4488808,38.3495115 C87.29465,37.5188385 97.8144192,41.7505692 105.027169,49.77205 C102.359612,49.0824346 99.5541308,48.9978 96.9210538,49.8880308 C95.4289769,50.3958385 96.8270154,50.9005115 97.7485923,50.58705 C100.9459,49.5056077 105.055381,51.0572423 107.91415,52.5963385 C108.284035,52.7969538 110.130323,52.4427423 109.935977,51.8158192 C108.744823,48.0323385 108.142977,44.3491654 108.211938,40.3870115 C108.221342,39.8729346 105.989496,40.2302808 105.980092,40.9825885" id="Fill-5" fill="#F48025"></path>
                            <g id="Group-9" transform="translate(0.000000, 47.648035)">
                                <mask id="mask-2" fill="white">
                                    <use xlink:href="#path-1"></use>
                                </mask>
                                <g id="Clip-8"></g>
                                <path d="M128.874383,50.0820635 C130.432287,44.0416596 126.811806,39.7127558 126.633133,39.5090058 C126.147267,38.9385058 125.282113,38.8726788 124.711613,39.3616788 C124.141113,39.8506788 124.075287,40.7126981 124.567421,41.2831981 C124.605037,41.3270827 128.291344,45.7374865 125.438844,51.5271212 C124.285306,53.8686788 119.780863,55.6898904 117.138383,56.5142942 C116.094556,53.9094288 113.33296,47.6872173 109.308113,43.7062558 C107.104479,41.5371019 104.195556,39.5403519 100.402671,37.0389288 C100.559402,37.0483327 100.712998,37.0671404 100.85719,37.0671404 C100.963767,37.0671404 101.06721,37.0671404 101.167517,37.0608712 C110.047883,36.7097942 112.91919,33.362025 113.220113,32.9796019 C113.674633,32.3934288 113.57119,31.5627558 113.00069,31.0925635 C112.420787,30.6223712 111.568171,30.7164096 111.088575,31.2806404 C111.063498,31.3088519 108.678056,34.0359673 101.057806,34.340025 C97.8479596,34.4371981 92.7009212,31.4781212 90.0020173,29.6475058 C88.6604019,28.6726404 87.2372865,27.738525 85.2875558,26.7636596 C83.3002096,25.7699865 81.707825,24.7982558 80.3097865,23.9425058 C78.2722865,22.7011981 76.6704981,21.7200635 74.8273442,21.2373327 C72.5359404,20.6323519 70.2727481,20.4630827 68.4389981,20.4630827 C67.7054981,20.4630827 67.0409596,20.4881596 66.4735942,20.525775 C66.4798635,20.485025 66.4892673,20.444275 66.4986712,20.4003904 C67.0221519,17.3629481 66.9531904,15.5668135 66.9469212,15.4947173 C66.9187096,14.7580827 66.3168635,14.1907173 65.5896327,14.1907173 L65.5332096,14.1907173 C64.7871712,14.2220635 64.1978635,14.8521212 64.226075,15.6044288 C64.226075,15.6201019 64.2793635,17.2187558 63.8091712,19.9364673 C63.7057288,20.5414481 63.5521327,21.0523904 63.3358442,21.503775 C63.3327096,21.5100442 63.3264404,21.5194481 63.3233058,21.5288519 C62.6493635,22.9112173 61.2043058,23.9236981 58.5994404,25.415775 C56.1920558,26.801275 52.6624788,26.5348327 50.2582288,25.3875635 C52.4618635,24.7575058 55.5619981,23.3908135 56.3864019,20.5696596 C57.0822865,18.162275 56.5399981,14.7643519 56.3864019,13.9117365 C56.4459596,12.4854865 56.6026904,11.3632942 59.295325,10.8648904 C63.7558827,10.0342173 73.5014019,9.66433269 82.0181519,12.0591788 C86.1244981,13.2158519 92.2714788,15.2439481 98.7726712,17.388025 C106.23619,19.8486981 113.959883,22.3971404 118.718229,23.6478519 C125.532883,25.4408519 133.068498,25.7104288 135.642017,25.7480442 C136.080863,26.7573904 136.532248,27.820025 136.989902,28.8983327 C138.635575,32.7789865 140.688748,37.6125635 143.221517,42.7313904 C144.22146,44.7406788 145.218267,46.9756596 146.196267,49.3046788 C142.663556,48.8344865 135.94294,48.3423519 128.874383,50.0820635 M115.138498,62.2631788 C114.721594,65.2441981 113.850171,66.4666981 112.032094,66.6234288 C109.935037,66.7832942 108.210998,64.7301212 107.850517,64.2756019 C107.380325,63.2662558 104.534094,57.3763135 100.600152,53.2825058 C98.2617288,50.843775 94.584825,48.8407558 91.3342288,47.0728327 C89.0992481,45.8503327 86.5539404,44.4679673 86.0398635,43.6498327 C84.682575,41.5182942 84.3189596,40.1108519 84.3189596,40.1045827 C84.1402865,39.3710827 83.378575,38.9322365 82.6732865,39.1015058 C81.9397865,39.2801788 81.4946712,40.0168135 81.667075,40.7471788 C81.7140942,40.9289865 82.1498058,42.5997365 83.7390558,45.1074288 C84.6324212,46.5211404 87.0147288,47.8220058 90.0333635,49.4676788 C93.1084212,51.1415635 96.5878442,53.0348712 98.6347481,55.1695442 C102.424498,59.1191596 105.255056,65.1564288 105.430594,65.5325827 C105.446267,65.5733327 105.46821,65.6203519 105.496421,65.6673712 C105.515229,65.6955827 105.534037,65.7237942 105.552844,65.7520058 C105.62494,65.8679865 106.709517,67.6139673 106.330229,69.4132365 C105.436863,73.5854096 102.512267,73.2656788 101.559344,73.1653712 C98.4592096,72.8299673 95.4311712,70.6921596 93.8137096,69.3599481 C93.7886327,69.3380058 93.7572865,69.3097942 93.729075,69.2847173 C92.5974788,68.2252173 91.6194788,67.3099096 88.3218635,64.6768327 C86.2686904,63.0342942 80.0057288,58.0314481 75.2818635,54.8121981 C74.6612096,54.3858904 73.8117288,54.552025 73.3885558,55.1695442 C72.9622481,55.7933327 73.1252481,56.6396788 73.7490365,57.0659865 C78.3914019,60.2225442 84.5854019,65.1783712 86.6229019,66.8083712 C88.6071135,68.3944865 89.7261712,69.3380058 90.5443058,70.0621019 C90.5850558,70.118525 90.632075,70.1686788 90.6790942,70.2219673 C90.7449212,70.281525 91.2401904,70.7799288 92.0645942,71.4538712 C92.4470173,71.8143519 92.8639212,72.1999096 93.4062096,72.6826404 C94.3622673,73.541525 94.4970558,74.1903904 94.5158635,74.6072942 C94.5628827,75.7200827 93.7071327,77.1964865 91.9015942,79.124275 C90.0709788,81.0708712 85.9740365,79.2402558 85.7452096,79.1368135 C85.3815942,78.9456019 79.6797288,75.9896596 76.6579596,73.4098712 C73.4481135,70.6764865 66.4641904,64.1878327 66.3952288,64.1220058 C65.8466712,63.6079288 64.9815173,63.639275 64.4674404,64.1909673 C63.9596327,64.7426596 63.9909788,65.6046788 64.5426712,66.1187558 C64.8279212,66.3851981 71.6394404,72.7139865 74.8837673,75.4818519 C77.2441327,77.4974096 80.9367096,79.6320827 82.9992865,80.7605442 L80.9367096,83.158525 C79.6515173,84.666275 77.9839019,85.848025 74.5577673,84.340275 C70.8056327,82.6946019 68.9499404,80.2872173 68.9342673,80.2684096 C68.667825,79.9141981 68.2571904,79.7198519 67.8402865,79.7198519 C67.6239981,79.7198519 67.4108442,79.7731404 67.2102288,79.8765827 C66.9249788,80.0176404 66.5174788,80.2151212 66.0692288,80.4220058 C65.2134788,79.7919481 63.451825,78.4754096 61.4299981,76.8171981 C60.1792865,75.7890442 59.5241519,74.7107365 58.887825,73.6669096 C58.1605942,72.4757558 57.4114212,71.2407173 55.9099404,70.4163135 C55.0197096,69.9335827 54.1357481,69.7392365 53.3270173,69.6796788 C53.2925365,69.0151404 53.2329788,67.8992173 53.2016327,67.0904865 C53.1264019,65.2410635 51.8129981,62.6173904 48.3461135,61.2945827 C45.929325,60.3761404 43.7570365,60.8714096 42.3401904,61.4607173 C41.8480558,60.6551212 40.9734981,59.9592365 39.5785942,59.7523519 C35.8703442,59.2006596 33.4284788,60.1535827 32.3062865,62.5735058 C32.0461135,63.1408712 31.9896904,63.8900442 32.0461135,64.6736981 L27.0181904,60.7084096 L19.8649981,53.4016212 C22.3131327,47.7937942 25.2596712,41.9916212 28.4851904,37.5749481 C34.1557096,29.7979673 39.1178058,23.8923519 42.0079212,20.5884673 L45.1362673,21.3909288 C45.1049212,21.4912365 45.0798442,21.5946788 45.0579019,21.6981212 C44.8322096,22.7168712 44.8854981,24.274775 46.4057865,25.9298519 C49.1454404,28.9108712 55.5243827,30.3371212 59.9598635,27.7824096 C62.7057865,26.2088327 64.3922096,25.0270827 65.4234981,23.3626019 C66.8497481,23.1933327 70.4984404,22.9143519 74.1314596,23.8735442 C75.5921904,24.2559673 77.0466519,25.1430635 78.8866712,26.2683904 C80.3379981,27.1554865 81.9805365,28.1554288 84.0650558,29.2023904 C85.3377096,29.8387173 86.3564596,30.4468327 87.2937096,31.080025 C87.4253635,31.1771981 87.8955558,31.5220058 88.6165173,32.0110058 C89.2026904,32.4404481 89.776325,32.8824288 90.3938442,33.3588904 C91.8263635,34.4685442 93.443825,35.725525 95.7603058,37.2458135 L97.1708827,38.170525 C101.91669,41.2800635 105.048171,43.3395058 107.389729,45.6434481 C111.897306,50.1040058 114.828171,58.0753327 115.016248,58.5925442 C115.056998,58.749275 115.433152,60.1473135 115.138498,62.2631788 M58.1480558,82.3215827 C57.5336712,82.221275 56.9819788,82.0802173 56.4616327,81.9234865 C56.4929788,80.5630635 56.3362481,77.3688904 54.3050173,75.5320058 C53.1953635,74.5383327 51.6844788,74.0587365 50.4274981,74.2029288 C50.5967673,73.3691212 51.0450173,72.7421981 51.4932673,72.3127558 C52.1389981,72.1403519 53.4649404,71.9271981 54.7062481,72.6074096 C55.627825,73.1120827 56.0980173,73.8894673 56.7562865,74.967775 C57.4302288,76.0711596 58.2671712,77.453525 59.8470173,78.7449865 C61.1886327,79.8483712 62.4017288,80.7887558 63.3421135,81.5003135 C61.5491135,82.099025 59.5837096,82.5598135 58.1480558,82.3215827 M51.6844788,78.8672365 C51.6531327,78.7512558 51.6092481,78.635275 51.5402865,78.5318327 C51.3428058,78.1995635 50.9791904,77.4660635 50.7033442,76.6447942 C51.104575,76.5915058 51.9665942,76.760775 52.6468058,77.3751596 C53.5370365,78.1682173 53.8599019,79.6320827 53.957075,80.8201019 C52.8348827,80.1398904 52.1045173,79.3938519 51.6844788,78.8672365 M49.3241135,68.9242365 C47.9605558,67.143775 44.1457288,65.9808327 41.7602865,66.5262558 C41.7634212,66.4228135 41.7602865,66.3068327 41.7822288,66.2190635 C42.0141904,65.2253904 42.2837673,64.7050442 42.4091519,64.4856212 C42.8668058,64.1784288 44.9607288,62.9277173 47.3743827,63.843025 C49.7535558,64.7520635 50.4431712,66.3789288 50.4776519,67.2033327 C50.5058635,67.918025 50.5591519,68.8803519 50.5904981,69.5605635 C50.3898827,69.6953519 50.1641904,69.8677558 49.9259596,70.0683712 C49.7849019,69.6546019 49.5905558,69.2659096 49.3241135,68.9242365 M47.0546519,76.7545058 C45.6095942,75.9520442 44.2397673,73.4819673 43.8322673,72.5886019 C43.8197288,72.5572558 43.8009212,72.5259096 43.7852481,72.4945635 C43.2774404,71.5573135 42.6944019,70.2752558 42.2837673,69.0841019 C42.5564788,69.0120058 43.0329404,68.9618519 43.7476327,69.0558904 C45.3619596,69.262775 46.8226904,69.9837365 47.2427288,70.526025 C47.7599404,71.2031019 47.7066519,72.9678904 47.6721712,74.1276981 L47.6721712,74.2154673 C47.6533635,74.3627942 47.6251519,74.5038519 47.6220173,74.6605827 C47.6126135,74.845525 47.6502288,75.0336019 47.6564981,75.2185442 C47.6627673,75.3533327 47.6627673,75.4943904 47.6659019,75.6103712 C47.6721712,75.6479865 47.6909788,75.6793327 47.6941135,75.7075442 C47.7599404,76.2341596 47.8602481,76.7482365 48.0107096,77.2341019 C47.7379981,77.1118519 47.4245365,76.9582558 47.0546519,76.7545058 M37.9391904,71.8833135 C36.882825,71.3128135 36.0176712,69.3536788 35.6509212,68.0841596 C36.0772288,67.7612942 36.7260942,67.3820058 37.4439212,67.4885827 C38.3843058,67.6233712 38.9736135,68.0716212 39.2400558,68.3192558 C39.5629212,69.792525 40.1804404,71.3128135 40.6882481,72.4067942 C39.9954981,72.5165058 39.0331712,72.482025 37.9391904,71.8833135 M34.9048827,65.3883904 C34.7544212,64.6047365 34.6917288,63.9621404 34.7826327,63.720775 C35.0114596,63.2255058 35.5913635,61.9183712 39.1773635,62.4481212 C39.3842481,62.4794673 39.9672865,62.5641019 40.1083442,63.0562365 C39.8011519,63.5452365 39.4876904,64.2536596 39.2306519,65.2159865 C38.8137481,65.0498519 38.3592288,64.902525 37.8263442,64.8241596 C36.679075,64.6642942 35.6854019,64.9777558 34.9048827,65.3883904 M17.2538635,68.8019865 C15.3041327,70.3912365 14.0095365,70.9272558 13.2384212,71.0902558 C14.0753635,68.4571788 16.0219596,62.6017173 18.7051904,56.1161981 L24.3224212,61.8494096 C23.3350173,63.1063904 21.1345173,65.6454288 17.2538635,68.8019865 M47.7191904,22.2842942 C47.7850173,21.9959096 47.9417481,21.7012558 48.1737096,21.4316788 C48.1893827,21.4128712 48.2081904,21.3971981 48.2238635,21.3752558 C48.5341904,21.0335827 48.9573635,20.7357942 49.4369596,20.5351788 C49.4777096,20.5163712 52.0104788,19.3785058 54.0009596,17.8111981 C53.997825,18.5352942 53.9288635,19.2405827 53.7658635,19.8110827 C53.1577481,21.9018712 49.2896327,22.9143519 47.7975558,23.1431788 C47.6847096,22.848525 47.6564981,22.5601404 47.7191904,22.2842942 M132.065421,19.0963904 C132.068556,19.099525 132.07169,19.099525 132.074825,19.1057942 C132.667267,19.5321019 133.475998,20.9991019 134.406979,22.9864481 C133.723633,22.9645058 132.902363,22.9268904 131.977652,22.8704673 C132.027806,22.7011981 132.040344,22.5162558 132.018402,22.3313135 C131.86794,21.1464288 131.899287,19.7734673 132.065421,19.0963904 M149.810479,50.9378135 C149.785402,50.6713712 149.68196,50.4237365 149.51896,50.2199865 C148.268248,47.1323904 146.961113,44.1388327 145.663383,41.5214288 C143.16196,36.4746981 141.130729,31.6850058 139.500729,27.8325635 C138.87694,26.3718327 138.328383,25.0709673 137.82371,23.9268327 C137.801767,23.8735442 137.779825,23.8171212 137.748479,23.7638327 C136.046383,19.8894481 134.927325,17.7986596 133.670344,16.8927558 C133.654671,16.8833519 133.642133,16.8770827 133.635863,16.8676788 C137.842517,15.7736981 144.353113,13.9524865 148.008075,12.2848712 C149.72271,11.5043519 151.058056,10.827275 152.186517,10.2505058 C154.656594,8.99665962 155.891633,8.36346731 157.860171,8.28823654 C159.066998,8.24435192 160.201729,8.59229423 161.49946,9.00292885 C161.878748,9.11890962 162.276844,9.23489038 162.678075,9.35087115 C162.499402,8.341525 162.30819,7.32904423 162.091902,6.33223654 C160.753421,5.90906346 159.38046,5.49842885 157.753594,5.56425577 C155.189479,5.66456346 153.499921,6.52344808 150.94521,7.82431346 C149.848094,8.382275 148.547229,9.04367885 146.876479,9.80539038 C141.535094,12.2409865 129.140825,15.1812558 129.01544,15.2126019 C128.28821,15.3850058 127.836825,16.1059673 127.999825,16.8394673 L129.303825,22.6635827 C126.297729,22.3783327 122.733671,21.8861981 119.414113,21.0116404 C114.730998,19.7828712 107.054325,17.2469673 99.6284212,14.7988327 C93.0927481,12.6453519 86.923825,10.6109865 82.7516519,9.43550577 C73.7866519,6.915275 63.5113827,7.31023654 58.7937865,8.18479423 C53.8473635,9.10323654 53.7157096,12.4039865 53.6530173,13.9901019 L53.6436135,14.3004288 C53.4241904,15.0213904 50.7221519,17.0338135 48.3774596,18.0212173 C47.7881519,18.2719865 47.2458635,18.6042558 46.7788058,18.9960827 L44.0516904,18.2939288 C44.4497865,17.8613519 44.6692096,17.6293904 44.6817481,17.6168519 C45.0014788,17.2783135 45.1268635,16.7987173 45.0108827,16.3441981 C44.8980365,15.8928135 44.5594981,15.5323327 44.1175173,15.3850058 C43.7444981,15.2627558 19.4073442,7.23814038 0.703094231,0.965775 C0.452325,1.83719808 0.226632692,2.72429423 0.000940384615,3.60825577 C15.5925173,8.83679423 34.9738442,15.2408135 41.2681519,17.3127942 C41.0487288,17.5541596 40.8104981,17.8237365 40.550325,18.1183904 C40.5252481,18.1466019 40.5064404,18.1685442 40.4813635,18.1967558 C37.6445365,21.4128712 32.359575,27.6382173 26.2815558,35.9668904 C18.7678827,46.2609673 12.9186904,63.1690827 10.9125365,69.3944288 C11.8779981,70.8708327 12.8967481,72.3002173 13.9437096,73.704525 C15.2226327,73.4036019 16.8620365,72.6387558 18.9716327,70.9147173 C22.9149788,67.7080058 25.2314596,65.1031404 26.3661904,63.6643519 L33.0648635,68.9493135 C33.419075,70.1404673 34.5036519,73.1214865 36.6351904,74.275025 C38.8137481,75.4693135 40.7352673,75.2749673 41.9577673,74.8988135 C42.6944019,76.1996788 44.0328827,78.1932942 45.7412481,79.1430827 C47.396325,80.0489865 48.5749404,80.3812558 49.4181519,80.3812558 C50.4776519,81.7698904 52.9728058,84.2431019 57.7092096,85.0142173 C60.9880173,85.5282942 65.5332096,83.6788712 67.5048827,82.7604288 C68.4954212,83.7885827 70.460825,85.522025 73.4637865,86.8385635 C74.8712288,87.4560827 76.1846327,87.7695442 77.4071327,87.7695442 C79.5324019,87.7695442 81.3849596,86.826025 83.0055558,84.9421212 L85.538325,81.9893135 C87.3877481,82.6632558 91.3812481,83.6600635 93.8889404,80.9862365 C96.1552673,78.5725827 97.2241712,76.5789673 97.2429788,74.7358135 C98.4999596,75.2906404 99.8572481,75.7200827 101.261556,75.8736788 C105.286402,76.3219288 108.101287,74.1715827 108.991517,69.9837365 C109.085556,69.5605635 109.123171,69.1499288 109.132575,68.7518327 C110.047883,69.181275 111.129325,69.4477173 112.270325,69.3411404 C116.962844,68.9336404 117.599171,64.3602365 117.837402,62.6361981 C118.041152,61.1786019 117.990998,59.9811788 117.887556,59.1379673 C120.351363,58.3793904 125.573633,56.4641404 127.582921,53.2668327 C131.306844,52.1132942 135.065248,51.6901212 138.331517,51.6148904 C138.34719,51.7308712 138.378537,51.8437173 138.42869,51.9596981 C138.569748,52.2856981 141.951998,60.0783519 145.848325,65.473025 C147.092767,67.1970635 148.481402,68.9022942 149.835556,70.4194481 C150.362171,69.6389288 150.885652,68.8521404 151.38719,68.0528135 C150.283806,66.7895635 149.139671,65.3758519 148.055094,63.8712365 C145.020787,59.6771212 142.21844,53.7244865 141.268652,51.6368327 C144.09921,51.740275 146.309113,52.066275 147.39996,52.2543519 C149.343421,57.1161404 151.123883,62.1189865 152.509383,66.1877173 C153.123767,65.1376212 153.719344,64.0718519 154.292979,62.9935442 C153.001517,59.2915635 151.462421,55.0535635 149.810479,50.9378135" id="Fill-7" fill="#F48025" mask="url(#mask-2)"></path>
                            </g>
                        </g>
                    </g>
                </g>
            </g>
        </g>
    </g>
</svg>